 <svg  version="1.0" xmlns="http://www.w3.org/2000/svg"  width="237.000000pt" height="84.000000pt" viewBox="0 0 237.000000 84.000000"  preserveAspectRatio="xMidYMid meet">  <g transform="translate(0.000000,84.000000) scale(0.100000,-0.100000)" fill="#384770" stroke="none"> <path d="M261 829 c-171 -33 -270 -206 -258 -449 11 -228 109 -355 288 -376 92 -10 245 38 328 104 l24 20 -26 44 c-43 74 -46 75 -131 33 -121 -60 -215 -47 -258 36 -39 75 -46 231 -17 343 6 22 26 55 44 73 27 27 40 33 78 33 76 0 127 -58 127 -144 l0 -45 45 -6 c100 -15 154 50 126 153 -23 90 -97 152 -210 179 -63 14 -96 15 -160 2z"/> <path d="M853 823 l-93 -4 0 -398 0 -399 139 -7 c219 -11 323 9 398 78 49 45 75 89 91 157 42 179 9 394 -76 483 -59 63 -180 99 -312 95 -30 -1 -97 -4 -147 -5z m278 -160 c18 -11 41 -40 57 -73 24 -50 27 -65 27 -170 0 -104 -3 -121 -27 -172 -34 -74 -62 -88 -168 -88 l-80 0 0 260 0 260 81 0 c59 0 89 -5 110 -17z"/> <path d="M1618 823 c-21 -2 -38 -7 -38 -11 0 -4 -14 -176 -30 -382 -16 -206 -30 -383 -30 -392 0 -13 13 -18 54 -23 30 -4 68 -4 84 0 29 6 31 9 36 68 6 73 13 187 22 391 4 81 10 142 14 135 4 -8 31 -116 61 -241 l53 -226 29 -6 c38 -8 96 -8 134 0 l30 6 59 241 59 242 7 -95 c4 -52 12 -187 17 -299 6 -113 14 -207 17 -210 9 -9 151 -7 160 2 7 7 -49 783 -58 792 -6 6 -228 8 -234 3 -6 -7 -79 -308 -99 -410 -10 -49 -21 -88 -25 -88 -4 0 -12 30 -19 68 -7 37 -31 148 -55 247 l-43 180 -39 7 c-41 7 -102 7 -166 1z"/> </g> </svg> 